<svg width="256" height="256" viewBox="0 0 256 256" fill="none" xmlns="http://www.w3.org/2000/svg">
  <circle cx="128" cy="128" r="118" fill="#FFFFFF" stroke="#D2202F" stroke-width="8"/>
  <circle cx="128" cy="128" r="98" fill="#F7FBFF" stroke="#12467F" stroke-width="5"/>
  <path d="M79 160C95 136 112 120 128 112C145 120 161 136 177 160" stroke="#1F5FA9" stroke-width="10" stroke-linecap="round"/>
  <path d="M94 145L116 108L128 123L141 93L162 145" fill="#1F5FA9"/>
  <path d="M85 168C96 181 108 188 128 188C148 188 160 181 171 168" stroke="#0F8E56" stroke-width="8" stroke-linecap="round"/>
  <path d="M86 171C69 162 56 148 48 127" stroke="#0F8E56" stroke-width="8" stroke-linecap="round"/>
  <path d="M170 171C187 162 200 148 208 127" stroke="#0F8E56" stroke-width="8" stroke-linecap="round"/>
  <path d="M74 92L86 82" stroke="#D2202F" stroke-width="6" stroke-linecap="round"/>
  <path d="M182 92L170 82" stroke="#D2202F" stroke-width="6" stroke-linecap="round"/>
  <circle cx="128" cy="68" r="9" fill="#D2202F"/>
  <path d="M98 161C102 149 111 144 119 144C126 144 132 148 136 154C140 148 146 144 153 144C162 144 171 149 175 161" stroke="#D2202F" stroke-width="6" stroke-linecap="round"/>
  <path d="M82 201H174" stroke="#D2202F" stroke-width="6" stroke-linecap="round"/>
  <text x="128" y="220" text-anchor="middle" font-family="'Noto Sans Devanagari', sans-serif" font-size="20" font-weight="700" fill="#12467F">नेपाल सरकार</text>
</svg>
